<?xml version="1.0" encoding="utf-8"?>
<!-- Generator: Adobe Illustrator 26.3.1, SVG Export Plug-In . SVG Version: 6.00 Build 0)  -->
<svg version="1.1" id="Layer_1" xmlns="http://www.w3.org/2000/svg" xmlns:xlink="http://www.w3.org/1999/xlink" x="0px" y="0px"
	 viewBox="0 0 361.7 76.4" style="enable-background:new 0 0 361.7 76.4; background-color: white;" xml:space="preserve">
<style type="text/css">
	.st0{fill:#F2C816;}
	.st1{fill:#4169B2;}
	.st2{fill:#5151A3;}
	.st3{fill:#752774;}
	.st4{fill:#11566B;}
	.st5{fill:#231F20;}
</style>
<path class="st0" d="M3.2,36.3c-0.3,0-1.5,4.2-0.1,5.2c1.1,0.8,6.4-0.6,13-5.8l0.9,1.8l5.3-9.7l-8.9,2.8l0.9,1.7
	c-1.9,1.7-9.2,5.3-10,5.1C3.7,37.4,3.4,36.3,3.2,36.3z"/>
<path class="st1" d="M44.4,22c0,0-3.7,9.1-7.5,14.6l-2.3-2c-7.5,8-19.1,18.4-28,19.3c-4.4,0.5-4.5-8.1-4.5-8.1s1.7,1.1,3,1
	c2.6-0.2,9.6-2.2,24.7-16.1l-2.5-2.2C33,26.9,44.4,22,44.4,22z"/>
<path class="st2" d="M39.8,40.7c0,0-2.7,8.1-7.6,13.9l-1.6-2c-10.7,9.7-18.2,11.9-19.5,11.7C8.4,63.8,6,58.8,6,58.8s1.5,1.2,3.4,0.9
	c2.4-0.3,10.3-4.6,17.8-10.8l-1.6-2C30.2,45.2,39.8,40.7,39.8,40.7z"/>
<path class="st3" d="M54.4,42c0,0-2.9,10.1-7.7,15.1l-1.5-1.4c-9.9,9.9-18.7,16-24,16c-3.6,0-7.3-3.7-7.3-3.7s2.9,0.4,4.2,0.1
	c5.4-1,15-8.4,23.6-16.3l-1.9-2.2C44.7,47.5,54.4,42,54.4,42z"/>
<path class="st4" d="M51.6,59.6c0,0-1.8,5.2-5.4,8.3l-1.1-0.7c-4.1,3.4-8.3,6.5-11.7,6.8c-3.2,0.3-6.6-0.4-6.6-0.4s4.3-0.7,6.2-1.5
	c2.6-1.1,6-3.2,9.7-6.1L41.2,65C45.6,63,51.6,59.6,51.6,59.6z"/>
<g>
	<g>
		<g>
			<path class="st5" d="M101,34h-2.8V23.1c0-0.9,0.1-2,0.2-3.3h0c-0.2,0.7-0.3,1.3-0.4,1.6l-5,12.5H91l-5-12.4
				c-0.1-0.4-0.3-0.9-0.4-1.7h0c0.1,0.7,0.1,1.8,0.1,3.3V34H83V17.2h3.9l4.4,11.1c0.3,0.9,0.5,1.5,0.7,1.9h0.1
				c0.3-0.9,0.5-1.5,0.7-2l4.5-11.1h3.8L101,34L101,34z"/>
			<path class="st5" d="M106.1,19.5c-0.4,0-0.8-0.1-1.1-0.4c-0.3-0.3-0.5-0.7-0.5-1.1c0-0.4,0.2-0.8,0.5-1.1
				c0.3-0.3,0.7-0.4,1.1-0.4c0.5,0,0.8,0.2,1.2,0.4c0.3,0.3,0.5,0.7,0.5,1.1c0,0.4-0.2,0.8-0.5,1.1C107,19.4,106.6,19.5,106.1,19.5z
				 M107.5,34h-2.7V22h2.7V34z"/>
			<path class="st5" d="M119.6,33.4c-1,0.5-2.1,0.8-3.4,0.8c-1.8,0-3.2-0.6-4.3-1.7c-1.1-1.1-1.6-2.6-1.6-4.3c0-2,0.6-3.5,1.8-4.7
				c1.2-1.2,2.7-1.8,4.7-1.8c1.1,0,2,0.2,2.9,0.6v2.5c-0.8-0.6-1.7-0.9-2.7-0.9c-1.1,0-2.1,0.4-2.8,1.2c-0.7,0.8-1.1,1.8-1.1,3
				c0,1.2,0.4,2.2,1,2.9c0.7,0.7,1.6,1.1,2.8,1.1c1,0,1.9-0.4,2.7-1V33.4z"/>
			<path class="st5" d="M129.2,24.6c-0.3-0.3-0.8-0.4-1.4-0.4c-0.8,0-1.5,0.4-2,1.1c-0.5,0.7-0.8,1.7-0.8,3V34h-2.7V22h2.7v2.5h0
				c0.3-0.8,0.7-1.5,1.2-2c0.5-0.5,1.2-0.7,1.8-0.7c0.5,0,0.9,0.1,1.1,0.2V24.6z"/>
			<path class="st5" d="M136.2,34.2c-1.8,0-3.3-0.6-4.4-1.7c-1.1-1.1-1.7-2.6-1.7-4.4c0-2,0.6-3.6,1.7-4.7c1.1-1.1,2.7-1.7,4.6-1.7
				c1.9,0,3.3,0.5,4.4,1.6c1,1.1,1.6,2.6,1.6,4.6c0,1.9-0.6,3.4-1.7,4.6C139.6,33.7,138.1,34.2,136.2,34.2z M136.3,23.9
				c-1.1,0-1.9,0.4-2.5,1.1s-0.9,1.8-0.9,3.1c0,1.2,0.3,2.2,0.9,3c0.6,0.7,1.5,1.1,2.5,1.1c1.1,0,1.9-0.4,2.5-1.1
				c0.6-0.7,0.9-1.7,0.9-3s-0.3-2.3-0.9-3C138.2,24.3,137.4,23.9,136.3,23.9z"/>
			<path class="st5" d="M144.4,33.6v-2.5c1,0.8,2.1,1.1,3.4,1.1c1.6,0,2.5-0.5,2.5-1.4c0-0.3-0.1-0.5-0.2-0.7
				c-0.1-0.2-0.3-0.4-0.6-0.5c-0.2-0.2-0.5-0.3-0.8-0.4c-0.3-0.1-0.7-0.3-1.1-0.4c-0.5-0.2-0.9-0.4-1.3-0.6c-0.4-0.2-0.7-0.5-1-0.7
				c-0.3-0.3-0.5-0.6-0.6-0.9s-0.2-0.8-0.2-1.2c0-0.6,0.1-1.1,0.4-1.5c0.3-0.4,0.6-0.8,1.1-1.1c0.5-0.3,1-0.5,1.6-0.7
				c0.6-0.2,1.2-0.2,1.8-0.2c1.1,0,2.1,0.2,3,0.5v2.4c-0.8-0.6-1.8-0.9-2.9-0.9c-0.3,0-0.6,0-0.9,0.1c-0.3,0.1-0.5,0.2-0.7,0.3
				c-0.2,0.1-0.4,0.3-0.4,0.4c-0.1,0.2-0.2,0.4-0.2,0.6c0,0.3,0.1,0.5,0.2,0.7c0.1,0.2,0.3,0.3,0.5,0.5c0.2,0.1,0.5,0.3,0.8,0.4
				c0.3,0.1,0.6,0.2,1,0.4c0.5,0.2,1,0.4,1.4,0.6c0.4,0.2,0.8,0.5,1,0.7c0.3,0.3,0.5,0.6,0.7,1c0.2,0.4,0.2,0.8,0.2,1.3
				c0,0.6-0.1,1.1-0.4,1.6c-0.3,0.4-0.7,0.8-1.1,1.1s-1,0.5-1.6,0.7c-0.6,0.1-1.2,0.2-1.9,0.2C146.5,34.2,145.4,34,144.4,33.6z"/>
			<path class="st5" d="M160.8,34.2c-1.8,0-3.3-0.6-4.4-1.7c-1.1-1.1-1.7-2.6-1.7-4.4c0-2,0.6-3.6,1.7-4.7c1.1-1.1,2.7-1.7,4.6-1.7
				c1.9,0,3.3,0.5,4.4,1.6c1,1.1,1.6,2.6,1.6,4.6c0,1.9-0.6,3.4-1.7,4.6C164.2,33.7,162.7,34.2,160.8,34.2z M160.9,23.9
				c-1.1,0-1.9,0.4-2.5,1.1c-0.6,0.7-0.9,1.8-0.9,3.1c0,1.2,0.3,2.2,0.9,3c0.6,0.7,1.5,1.1,2.5,1.1c1.1,0,1.9-0.4,2.5-1.1
				c0.6-0.7,0.9-1.7,0.9-3s-0.3-2.3-0.9-3C162.8,24.3,162,23.9,160.9,23.9z"/>
			<path class="st5" d="M176.1,18.5c-0.4-0.2-0.8-0.3-1.2-0.3c-1.3,0-2,0.7-2,2.2V22h2.8v2.1h-2.8V34h-2.7v-9.8h-2V22h2v-1.9
				c0-1.3,0.4-2.3,1.2-3c0.8-0.7,1.9-1.1,3.1-1.1c0.7,0,1.2,0.1,1.6,0.2L176.1,18.5L176.1,18.5z"/>
			<path class="st5" d="M184.3,33.8c-0.5,0.3-1.2,0.4-2.1,0.4c-2.3,0-3.5-1.1-3.5-3.3v-6.8h-2V22h2v-2.8l2.7-0.8V22h2.9v2.1h-2.9v6
				c0,0.7,0.1,1.2,0.4,1.5c0.3,0.3,0.7,0.4,1.3,0.4c0.5,0,0.9-0.1,1.2-0.4V33.8z"/>
			<path class="st5" d="M196.3,27.9V34h-2.8V17.2h5.1c1.9,0,3.4,0.4,4.5,1.3c1.1,0.9,1.6,2.2,1.6,3.8c0,1.6-0.5,3-1.7,4
				c-1.1,1-2.6,1.6-4.5,1.6L196.3,27.9L196.3,27.9z M196.3,19.5v6.1h1.8c1.2,0,2.1-0.3,2.7-0.8c0.6-0.5,0.9-1.3,0.9-2.3
				c0-2-1.1-3-3.4-3C198.3,19.5,196.3,19.5,196.3,19.5z"/>
			<path class="st5" d="M211.7,34.2c-1.8,0-3.3-0.6-4.4-1.7c-1.1-1.1-1.7-2.6-1.7-4.4c0-2,0.6-3.6,1.7-4.7c1.1-1.1,2.7-1.7,4.6-1.7
				c1.9,0,3.3,0.5,4.4,1.6c1,1.1,1.6,2.6,1.6,4.6c0,1.9-0.6,3.4-1.7,4.6C215.1,33.7,213.6,34.2,211.7,34.2z M211.8,23.9
				c-1.1,0-1.9,0.4-2.5,1.1c-0.6,0.7-0.9,1.8-0.9,3.1c0,1.2,0.3,2.2,0.9,3c0.6,0.7,1.5,1.1,2.5,1.1c1.1,0,1.9-0.4,2.5-1.1
				c0.6-0.7,0.9-1.7,0.9-3s-0.3-2.3-0.9-3C213.7,24.3,212.9,23.9,211.8,23.9z"/>
			<path class="st5" d="M236.7,22L233.2,34h-2.8l-2.2-8.1c-0.1-0.3-0.1-0.7-0.2-1.1h0c0,0.3-0.1,0.6-0.2,1l-2.4,8.1h-2.8L219.1,22
				h2.8l2.2,8.6c0.1,0.3,0.1,0.6,0.1,1h0.1c0-0.3,0.1-0.7,0.2-1.1l2.4-8.6h2.5l2.1,8.7c0.1,0.3,0.1,0.6,0.2,1h0.1
				c0-0.3,0.1-0.6,0.2-1l2.1-8.7L236.7,22L236.7,22z"/>
			<path class="st5" d="M248.7,28.7h-8.1c0,1.1,0.4,2,1,2.6c0.6,0.6,1.5,0.9,2.7,0.9c1.3,0,2.5-0.4,3.5-1.1v2.2
				c-1.1,0.7-2.5,1-4.3,1c-1.8,0-3.1-0.5-4.1-1.6c-1-1.1-1.5-2.6-1.5-4.6c0-1.9,0.5-3.4,1.7-4.5c1.1-1.2,2.5-1.8,4.1-1.8
				c1.6,0,2.9,0.5,3.8,1.6c0.9,1.1,1.3,2.5,1.3,4.4L248.7,28.7L248.7,28.7z M246.1,26.8c0-1-0.2-1.7-0.7-2.3
				c-0.4-0.5-1.1-0.8-1.9-0.8c-0.8,0-1.4,0.3-2,0.9c-0.5,0.6-0.9,1.3-1,2.2H246.1z"/>
			<path class="st5" d="M258.2,24.6c-0.3-0.3-0.8-0.4-1.4-0.4c-0.8,0-1.5,0.4-2,1.1c-0.5,0.7-0.8,1.7-0.8,3V34h-2.7V22h2.7v2.5h0
				c0.3-0.8,0.7-1.5,1.2-2c0.5-0.5,1.2-0.7,1.8-0.7c0.5,0,0.9,0.1,1.1,0.2V24.6z"/>
			<path class="st5" d="M269.8,27.9V34H267V17.2h5.1c1.9,0,3.4,0.4,4.5,1.3s1.6,2.2,1.6,3.8c0,1.6-0.5,3-1.7,4
				c-1.1,1-2.6,1.6-4.5,1.6L269.8,27.9L269.8,27.9z M269.8,19.5v6.1h1.8c1.2,0,2.1-0.3,2.7-0.8c0.6-0.5,0.9-1.3,0.9-2.3
				c0-2-1.1-3-3.4-3C271.8,19.5,269.8,19.5,269.8,19.5z"/>
			<path class="st5" d="M283.4,34h-2.7V16.3h2.7V34z"/>
			<path class="st5" d="M296.1,34h-2.6v-1.9h0c-0.8,1.4-2,2.1-3.6,2.1c-1.2,0-2.1-0.3-2.8-1c-0.7-0.6-1-1.5-1-2.5
				c0-2.3,1.3-3.6,3.9-3.9l3.5-0.5c0-1.7-0.8-2.6-2.4-2.6c-1.4,0-2.7,0.5-3.9,1.5v-2.4c1.3-0.7,2.7-1.1,4.4-1.1c3,0,4.5,1.5,4.5,4.5
				V34z M293.5,28.1l-2.5,0.4c-0.8,0.1-1.4,0.3-1.8,0.6c-0.4,0.3-0.6,0.8-0.6,1.5c0,0.5,0.2,0.9,0.5,1.2c0.4,0.3,0.8,0.5,1.5,0.5
				c0.8,0,1.5-0.3,2-0.9c0.5-0.6,0.8-1.3,0.8-2.2L293.5,28.1L293.5,28.1z"/>
			<path class="st5" d="M305.7,33.8c-0.5,0.3-1.2,0.4-2.1,0.4c-2.3,0-3.5-1.1-3.5-3.3v-6.8h-2V22h2v-2.8l2.7-0.8V22h2.9v2.1h-2.9v6
				c0,0.7,0.1,1.2,0.4,1.5c0.3,0.3,0.7,0.4,1.3,0.4c0.5,0,0.9-0.1,1.2-0.4V33.8z"/>
			<path class="st5" d="M314.8,18.5c-0.4-0.2-0.8-0.3-1.2-0.3c-1.3,0-2,0.7-2,2.2V22h2.8v2.1h-2.8V34h-2.7v-9.8h-2V22h2v-1.9
				c0-1.3,0.4-2.3,1.2-3c0.8-0.7,1.9-1.1,3.1-1.1c0.7,0,1.2,0.1,1.6,0.2L314.8,18.5L314.8,18.5z"/>
			<path class="st5" d="M321.6,34.2c-1.8,0-3.3-0.6-4.4-1.7c-1.1-1.1-1.7-2.6-1.7-4.4c0-2,0.6-3.6,1.7-4.7s2.7-1.7,4.6-1.7
				c1.9,0,3.3,0.5,4.4,1.6c1,1.1,1.6,2.6,1.6,4.6c0,1.9-0.6,3.4-1.7,4.6C325,33.7,323.4,34.2,321.6,34.2z M321.7,23.9
				c-1.1,0-1.9,0.4-2.5,1.1c-0.6,0.7-0.9,1.8-0.9,3.1c0,1.2,0.3,2.2,0.9,3c0.6,0.7,1.5,1.1,2.5,1.1c1.1,0,1.9-0.4,2.5-1.1
				c0.6-0.7,0.9-1.7,0.9-3s-0.3-2.3-0.9-3C323.6,24.3,322.7,23.9,321.7,23.9z"/>
			<path class="st5" d="M337.5,24.6c-0.3-0.3-0.8-0.4-1.4-0.4c-0.8,0-1.5,0.4-2,1.1c-0.5,0.7-0.8,1.7-0.8,3V34h-2.7V22h2.7v2.5h0
				c0.3-0.8,0.7-1.5,1.2-2c0.5-0.5,1.2-0.7,1.8-0.7c0.5,0,0.9,0.1,1.1,0.2L337.5,24.6L337.5,24.6z"/>
			<path class="st5" d="M357.2,34h-2.7v-6.5c0-1.2-0.2-2.2-0.5-2.7c-0.4-0.6-1-0.8-1.8-0.8c-0.7,0-1.3,0.4-1.8,1.1
				c-0.5,0.7-0.7,1.6-0.7,2.5V34h-2.7v-6.7c0-2.2-0.8-3.3-2.4-3.3c-0.7,0-1.3,0.3-1.8,1c-0.5,0.7-0.7,1.5-0.7,2.6V34h-2.7V22h2.7
				v1.9h0c0.9-1.4,2.1-2.2,3.8-2.2c0.8,0,1.5,0.2,2.2,0.7s1,1.1,1.3,1.8c0.9-1.7,2.2-2.5,4-2.5c2.6,0,3.9,1.6,3.9,4.9L357.2,34
				L357.2,34z"/>
			<path class="st3" d="M100.2,64.1c-1.7,0.8-3.9,1.2-6.6,1.2c-3.5,0-6.4-1.1-8.4-3.1c-2-2.1-3.1-4.9-3.1-8.4c0-3.7,1.1-6.7,3.4-9
				s5.3-3.5,8.9-3.5c2.3,0,4.2,0.3,5.7,0.9v5c-1.6-0.9-3.3-1.4-5.3-1.4c-2.2,0-3.9,0.7-5.3,2c-1.3,1.4-2,3.2-2,5.6
				c0,2.2,0.6,4,1.9,5.4c1.3,1.3,3,2,5.1,2c2,0,3.9-0.5,5.6-1.5L100.2,64.1L100.2,64.1z"/>
			<path class="st3" d="M121.2,65.3c-3.3,0-6-1.1-8.1-3.2c-2.1-2.2-3.1-5-3.1-8.4c0-3.7,1.1-6.6,3.2-8.9s4.9-3.4,8.4-3.4
				c3.3,0,6,1.1,8,3.3c2,2.2,3.1,5,3.1,8.6c0,3.6-1.1,6.6-3.2,8.8C127.4,64.2,124.6,65.3,121.2,65.3z M121.5,45.8
				c-1.8,0-3.3,0.7-4.4,2.1c-1.1,1.4-1.6,3.2-1.6,5.5c0,2.3,0.5,4.1,1.6,5.4c1.1,1.3,2.5,2,4.2,2c1.8,0,3.2-0.6,4.3-1.9
				s1.6-3.1,1.6-5.4c0-2.4-0.5-4.3-1.5-5.6C124.6,46.5,123.2,45.8,121.5,45.8z"/>
			<path class="st3" d="M165,64.9h-5.3l-9.5-14.6c-0.6-0.9-1-1.5-1.2-1.9h-0.1c0.1,0.8,0.1,2.1,0.1,3.7v12.7h-4.9V41.7h5.6l9.2,14.1
				c0.4,0.6,0.8,1.3,1.2,1.9h0.1c-0.1-0.5-0.1-1.6-0.1-3.2V41.7h4.9V64.9z"/>
			<path class="st3" d="M191.3,46h-8.2v5.7h7.5v4.2h-7.5v9h-5.2V41.7h13.4V46z"/>
			<path class="st3" d="M216.6,64.9h-13.9V41.7h13.4V46h-8.1v5.2h7.6v4.2h-7.6v5.3h8.7V64.9z"/>
			<path class="st3" d="M247.4,64.9h-6l-3.6-6c-0.3-0.4-0.5-0.9-0.8-1.2c-0.3-0.4-0.5-0.7-0.8-0.9c-0.3-0.3-0.5-0.4-0.8-0.6
				c-0.3-0.1-0.6-0.2-0.9-0.2h-1.4v8.9h-5.2V41.7h8.3c5.6,0,8.4,2.1,8.4,6.3c0,0.8-0.1,1.6-0.4,2.2c-0.3,0.7-0.6,1.3-1.1,1.9
				c-0.4,0.5-1,1-1.6,1.4c-0.6,0.4-1.4,0.7-2.1,0.9v0.1c0.4,0.1,0.7,0.3,1,0.5c0.3,0.2,0.6,0.5,0.9,0.8c0.3,0.3,0.6,0.7,0.9,1
				c0.3,0.4,0.5,0.7,0.8,1.1L247.4,64.9z M233.1,45.6v6.4h2.3c1.1,0,2-0.3,2.7-1c0.7-0.7,1-1.5,1-2.4c0-2-1.2-3-3.6-3
				C235.5,45.6,233.1,45.6,233.1,45.6z"/>
			<path class="st3" d="M271,64.9h-13.9V41.7h13.4V46h-8.1v5.2h7.6v4.2h-7.6v5.3h8.7V64.9z"/>
			<path class="st3" d="M303.2,64.9h-5.3l-9.5-14.6c-0.6-0.9-1-1.5-1.2-1.9h-0.1c0.1,0.8,0.1,2.1,0.1,3.7v12.7h-4.9V41.7h5.6
				l9.2,14.1c0.4,0.6,0.8,1.3,1.2,1.9h0.1c-0.1-0.5-0.1-1.6-0.1-3.2V41.7h4.9V64.9z"/>
			<path class="st3" d="M332.7,64.1c-1.7,0.8-3.9,1.2-6.6,1.2c-3.5,0-6.4-1.1-8.4-3.1s-3.1-4.9-3.1-8.4c0-3.7,1.1-6.7,3.4-9
				s5.3-3.5,8.9-3.5c2.3,0,4.2,0.3,5.7,0.9v5c-1.6-0.9-3.3-1.4-5.3-1.4c-2.2,0-3.9,0.7-5.3,2c-1.3,1.4-2,3.2-2,5.6
				c0,2.2,0.6,4,1.9,5.4s3,2,5.1,2c2,0,3.9-0.5,5.6-1.5V64.1z"/>
			<path class="st3" d="M358.2,64.9h-13.9V41.7h13.4V46h-8.1v5.2h7.6v4.2h-7.6v5.3h8.7V64.9z"/>
		</g>
	</g>
</g>
<g>
	<path class="st5" d="M11.8,16.1l-2.5,2.5c0.4,0.3,0.7,0.5,1.1,0.5s0.8-0.2,1.1-0.6c0.4-0.4,0.6-0.9,0.7-1.5l0.7,0.7
		c-0.1,0.5-0.5,1.1-1,1.7c-0.5,0.5-1.1,0.8-1.8,0.8c-0.6,0-1.3-0.3-1.9-1c-0.6-0.6-0.9-1.2-0.9-1.9c0-0.7,0.2-1.3,0.7-1.8
		s1.1-0.8,1.7-0.7c0.6,0,1.2,0.4,1.8,0.9L11.8,16.1z M10.4,16.4c-0.3-0.3-0.6-0.5-0.9-0.5S8.8,16,8.6,16.2s-0.4,0.5-0.4,0.9
		c0,0.4,0.1,0.7,0.4,1L10.4,16.4z"/>
	<path class="st5" d="M20.5,12.9l-1,0.6L18,11.1c-0.3-0.5-0.6-0.8-0.9-0.9s-0.5-0.1-0.9,0.1c-0.3,0.2-0.4,0.4-0.4,0.8
		c0,0.4,0.1,0.8,0.3,1.1l1.5,2.4l-1,0.6l-1.6-2.5c-0.5-0.8-1.1-1.1-1.7-0.7C13.2,12.4,13,12.6,13,13c0,0.4,0.1,0.7,0.4,1.1l1.5,2.4
		l-1,0.6l-2.8-4.4l1-0.6l0.4,0.7l0,0c0-0.7,0.3-1.3,0.9-1.7c0.3-0.2,0.6-0.3,1-0.3c0.3,0,0.6,0.1,0.9,0.4c-0.1-0.8,0.2-1.4,0.9-1.9
		c1-0.6,1.9-0.3,2.6,0.9L20.5,12.9z"/>
	<path class="st5" d="M22,9.6l0.9,2.5l-1.1,0.4l-2.5-6.9l2.1-0.8c0.8-0.3,1.5-0.3,2-0.1c0.6,0.2,1,0.7,1.2,1.3s0.2,1.3-0.1,1.9
		s-0.9,1-1.6,1.3L22,9.6z M20.7,6.2l0.9,2.5l0.8-0.3c0.5-0.2,0.8-0.4,1-0.8c0.2-0.3,0.2-0.7,0-1.1c-0.3-0.8-0.9-1.1-1.9-0.7
		L20.7,6.2z"/>
	<path class="st5" d="M30.2,10.4c-1,0.1-1.9-0.1-2.7-0.7s-1.2-1.4-1.3-2.5c-0.2-1.2,0-2.2,0.6-2.9c0.5-0.8,1.4-1.2,2.5-1.4
		c1-0.1,1.9,0.1,2.6,0.7c0.7,0.6,1.2,1.4,1.3,2.5c0.2,1.2,0,2.2-0.6,3C32.1,9.8,31.3,10.3,30.2,10.4z M29.4,3.9
		c-0.7,0.1-1.2,0.4-1.5,1c-0.4,0.6-0.5,1.2-0.4,2.1c0.1,0.8,0.4,1.4,0.9,1.9c0.5,0.4,1,0.6,1.7,0.5c0.7-0.1,1.2-0.4,1.6-0.9
		C32,7.9,32.1,7.2,32,6.3c-0.1-0.9-0.4-1.5-0.9-2C30.7,4,30.1,3.8,29.4,3.9z"/>
	<path class="st5" d="M44.7,3.7l-3,7l-1.4-0.2l-0.7-5.3c0-0.2,0-0.5,0-0.7h0c0,0.2-0.1,0.5-0.2,0.7l-2.1,4.9l-1.4-0.2l-1.1-7.6
		l1.3,0.2L36.8,8c0,0.2,0,0.5,0,0.7h0c0-0.2,0.1-0.4,0.2-0.7l2.2-5.2l1.2,0.2l0.7,5.6c0,0.2,0,0.4,0,0.7h0c0-0.2,0.1-0.4,0.2-0.7
		l2-5.2L44.7,3.7z"/>
	<path class="st5" d="M48.1,12.9l-3.9-1.5l2.6-6.9L50.6,6l-0.4,1l-2.6-1l-0.8,2l2.4,0.9l-0.4,1l-2.4-0.9l-0.8,2l2.7,1L48.1,12.9z"/>
	<path class="st5" d="M53.9,16.3l-1.2-0.7l0-2.3c0-0.2,0-0.4,0-0.6c0-0.2,0-0.3-0.1-0.4s-0.1-0.2-0.2-0.3s-0.2-0.2-0.3-0.3l-0.4-0.3
		L50.1,14L49,13.4l3.8-6.3l2.1,1.3c0.3,0.2,0.5,0.4,0.8,0.6c0.2,0.2,0.4,0.5,0.5,0.7s0.1,0.5,0.1,0.8c0,0.3-0.1,0.6-0.3,0.8
		c-0.1,0.2-0.3,0.4-0.5,0.6s-0.4,0.2-0.6,0.3c-0.2,0.1-0.4,0.1-0.7,0.1c-0.2,0-0.5,0-0.7-0.1l0,0c0.1,0.1,0.1,0.3,0.2,0.4
		c0,0.1,0.1,0.3,0.1,0.4s0,0.3,0.1,0.4c0,0.1,0,0.3,0,0.5L53.9,16.3z M53.3,8.6l-1.2,2.1l0.9,0.5c0.2,0.1,0.3,0.2,0.5,0.2
		c0.2,0,0.3,0,0.5,0c0.2,0,0.3-0.1,0.4-0.2c0.1-0.1,0.3-0.2,0.4-0.4c0.2-0.3,0.2-0.6,0.1-0.9c-0.1-0.3-0.3-0.5-0.7-0.8L53.3,8.6z"/>
	<path class="st5" d="M61,20.1l-2.5-2.6c-0.3,0.4-0.5,0.7-0.5,1.1c0,0.4,0.2,0.8,0.5,1.1c0.4,0.4,0.9,0.7,1.4,0.8l-0.7,0.7
		c-0.5-0.1-1.1-0.5-1.6-1.1c-0.5-0.6-0.8-1.2-0.7-1.8c0-0.6,0.4-1.3,1-1.9c0.6-0.6,1.2-0.9,2-0.9c0.7,0,1.3,0.2,1.8,0.8
		c0.5,0.5,0.7,1.1,0.7,1.7s-0.4,1.2-1,1.8L61,20.1z M60.8,18.7c0.3-0.3,0.5-0.6,0.5-0.9s-0.1-0.6-0.3-0.8s-0.5-0.4-0.9-0.4
		c-0.3,0-0.7,0.1-1,0.4L60.8,18.7z"/>
	<path class="st5" d="M66.7,23.2l-5.5,1.3l-0.7-1.1l3.2-4.6l0.7,1.1l-2.4,3c-0.2,0.2-0.3,0.4-0.5,0.5l0,0c0.2-0.1,0.4-0.2,0.7-0.3
		l3.8-1.1L66.7,23.2z"/>
	<path class="st5" d="M66.6,29.6L65,26.3c-0.4,0.2-0.7,0.5-0.8,0.9c-0.1,0.4-0.1,0.8,0.2,1.2c0.2,0.5,0.6,0.9,1.1,1.2l-0.9,0.4
		c-0.5-0.3-0.9-0.8-1.2-1.5c-0.3-0.7-0.4-1.4-0.1-2c0.2-0.6,0.8-1.1,1.5-1.5c0.7-0.4,1.4-0.4,2.1-0.2s1.2,0.6,1.5,1.3
		c0.3,0.6,0.3,1.2,0.1,1.8s-0.8,1-1.5,1.4L66.6,29.6z M66.8,28.2c0.4-0.2,0.7-0.4,0.8-0.7s0.1-0.6,0-0.9c-0.2-0.3-0.4-0.5-0.7-0.6
		s-0.7-0.1-1.1,0L66.8,28.2z"/>
	<path class="st5" d="M69.6,33.1c0.1-0.2,0.1-0.4,0-0.6c-0.1-0.3-0.3-0.6-0.7-0.7c-0.4-0.1-0.8-0.1-1.3,0l-2.4,0.8l-0.3-1.1l5-1.6
		l0.3,1.1l-1,0.3l0,0c0.4,0,0.7,0.1,1,0.3s0.4,0.4,0.5,0.7c0.1,0.2,0.1,0.4,0.1,0.5L69.6,33.1z"/>
	<path class="st5" d="M71.7,39.1l-6.4-1.4c-1.2-0.3-1.8-0.9-1.9-1.8c0-0.2,0-0.5,0-0.6l1-0.2c0,0.2,0,0.4,0,0.5
		c0.1,0.4,0.3,0.7,0.8,0.9l0.9,0.2l4.9-2.8l0.2,1.3l-3.6,1.8c-0.1,0-0.2,0.1-0.4,0.2v0c0.1,0,0.2,0,0.4,0l4,0.7L71.7,39.1z"/>
	<path class="st5" d="M66.3,42.6c0-0.8,0.3-1.5,0.8-1.9c0.5-0.5,1.2-0.7,2-0.7c0.9,0,1.6,0.3,2.1,0.8s0.7,1.2,0.7,2.1
		c0,0.8-0.3,1.5-0.8,1.9s-1.2,0.7-2,0.7c-0.8,0-1.5-0.3-2-0.8C66.6,44.1,66.3,43.4,66.3,42.6z M70.9,42.7c0-0.5-0.2-0.8-0.5-1.1
		c-0.3-0.3-0.8-0.4-1.3-0.4c-0.6,0-1,0.1-1.3,0.4s-0.5,0.6-0.5,1.1c0,0.5,0.1,0.8,0.4,1.1s0.8,0.4,1.3,0.4c0.6,0,1-0.1,1.3-0.3
		S70.9,43.2,70.9,42.7z"/>
	<path class="st5" d="M65.3,50.8l0.2-1.2l2.9,0.6c1,0.2,1.5,0,1.7-0.7c0.1-0.4,0-0.7-0.2-1c-0.2-0.3-0.5-0.5-0.9-0.6L66,47.4
		l0.2-1.2l5.2,1.1l-0.2,1.2l-0.9-0.2v0c0.6,0.5,0.8,1.1,0.6,1.9c-0.1,0.6-0.4,1-0.8,1.2s-1,0.3-1.7,0.1L65.3,50.8z"/>
	<path class="st5" d="M65.5,56.9l1.3-3.3c-0.5-0.2-0.9-0.2-1.2,0s-0.6,0.5-0.8,1c-0.2,0.5-0.2,1.1-0.1,1.6l-0.9-0.3
		c-0.1-0.6,0-1.2,0.3-1.9c0.3-0.7,0.7-1.2,1.3-1.4c0.6-0.2,1.3-0.2,2.1,0.1c0.8,0.3,1.3,0.8,1.6,1.4c0.3,0.6,0.3,1.3,0.1,2
		c-0.3,0.7-0.7,1.1-1.3,1.3s-1.2,0.1-2-0.2L65.5,56.9z M66.7,56.2c0.4,0.2,0.8,0.2,1,0.1s0.5-0.3,0.6-0.6s0.1-0.6,0-1
		s-0.4-0.6-0.8-0.8L66.7,56.2z"/>
</g>
</svg>
